PathFileType	4	(X/Y/Z)	4_coords_data.trc
DataRate	CameraRate	NumFrames	NumMarkers	Units	OrigDataRate	OrigDataStartFrame	OrigNumFrames
30.0	30.0	5	21	m	30.0	1	57
Frame#	Time	THUMB_TIP	THUMB_IP	THUMB_MCP	THUMB_CMC	INDEX_TIP	INDEX_DIP	INDEX_PIP	INDEX_MCP	MIDDLE_TIP	MIDDLE_DIP	MIDDLE_PIP	MIDDLE_MCP	RING_TIP	RING_DIP	RING_PIP	RING_MCP	PINKY_TIP	PINKY_DIP	PINKY_PIP	PINKY_MCP	WRIST
X1	Y1	Z1	X2	Y2	Z2	X3	Y3	Z3	X4	Y4	Z4	X5	Y5	Z5	X6	Y6	Z6	X7	Y7	Z7	X8	Y8	Z8	X9	Y9	Z9	X10	Y10	Z10	X11	Y11	Z11	X12	Y12	Z12	X13	Y13	Z13	X14	Y14	Z14	X15	Y15	Z15	X16	Y16	Z16	X17	Y17	Z17	X18	Y18	Z18	X19	Y19	Z19	X20	Y20	Z20	X21	Y21	Z21
0	0.0	-0.005218070030212402	-0.042016300201416015	1.0541700439453126	-0.014772899627685547	-0.06306119918823243	1.0695899658203125	-0.03525669860839844	-0.07501139831542969	1.092010009765625	-0.04199349975585937	-0.03958639907836914	1.10106005859375	0.0	0.0	0.0	-0.030527000427246095	-0.06646320343017578	1.05868994140625	-0.029486499786376952	-0.07094719696044922	1.042469970703125	-0.07385240173339844	-0.06899849700927735	1.048260009765625	-0.025380300521850585	-0.04836700057983399	1.0699599609375	-0.02793829917907715	-0.043908599853515626	1.0682900390625	-0.022705299377441406	-0.04700389862060547	1.0399100341796874	-0.07190650177001953	-0.04519340133666992	1.0365	-0.023120500564575194	-0.034500900268554686	1.0535899658203125	-0.028786500930786132	-0.02397520065307617	1.074300048828125	-0.016986499786376952	-0.023508499145507813	1.0509300537109374	-0.0629625015258789	-0.02033609962463379	1.0354200439453125	-0.04912540054321289	-0.009231430053710937	1.0738599853515625	-0.03043239974975586	-0.006746699810028076	1.07077001953125	-0.02377199935913086	-0.0014956099987030028	1.05025	-0.057423198699951175	0.004086559772491455	1.03981005859375	-0.0804927978515625	-0.012297300338745118	1.11643994140625
1	0.03333333333333333	-0.005203229904174805	-0.03934360122680664	1.0550699462890625	-0.013586700439453125	-0.05988339996337891	1.0702900390625	-0.03322579956054687	-0.07186289978027344	1.093239990234375	-0.043423599243164065	-0.03932440185546875	1.10381005859375	-0.04099819946289063	-0.059106998443603516	1.0763900146484375	-0.028527299880981447	-0.06251869964599609	1.06475	-0.02671890068054199	-0.0680302963256836	1.044719970703125	-0.07093920135498047	-0.06780970001220703	1.0481800537109376	-0.030401199340820313	-0.043851398468017576	1.076469970703125	-0.02710510063171387	-0.0418843002319336	1.069800048828125	-0.02106340026855469	-0.04408570098876953	1.042280029296875	-0.06845639801025391	-0.04408369827270508	1.03768994140625	-0.026700399398803712	-0.029235700607299804	1.070030029296875	-0.030114500045776368	-0.022875699996948242	1.07727001953125	-0.015412099838256836	-0.021498600006103517	1.053	-0.059763198852539064	-0.01921660041809082	1.037239990234375	-0.04400299835205078	-0.006267049789428711	1.0791800537109375	-0.02956030082702637	-0.005833879947662353	1.0742900390625	-0.02064150047302246	-0.00118352997303009	1.0545899658203124	-0.05430099868774414	0.005014460086822509	1.041219970703125	-0.07834700012207031	-0.011933899879455567	1.11725
2	0.06666666666666667	-0.0036997299194335928	-0.03582780075073242	1.056449951171875	-0.011380800247192383	-0.0569098014831543	1.071260009765625	-0.03083449935913086	-0.06954199981689453	1.094	-0.04177170181274414	-0.037397201538085935	1.1044000244140626	-0.04054019927978516	-0.057919898986816404	1.0765899658203124	-0.026183700561523436	-0.06045840072631836	1.0654300537109376	-0.024059799194335936	-0.06549600219726562	1.0453900146484374	-0.06827249908447265	-0.06640760040283203	1.04825	-0.028506999969482423	-0.042008998870849606	1.0771400146484376	-0.025550600051879882	-0.039866500854492185	1.07068994140625	-0.018757400512695314	-0.04145930099487305	1.043489990234375	-0.06607270050048829	-0.04263150024414063	1.0380799560546874	-0.02464069938659668	-0.027409900665283204	1.0714300537109376	-0.02883449935913086	-0.02092970085144043	1.07893994140625	-0.01346030044555664	-0.019104700088500976	1.0549599609375	-0.057528099060058596	-0.017658700942993166	1.037969970703125	-0.04268130111694336	-0.004524320125579834	1.0810999755859374	-0.02821389961242676	-0.003912889957427978	1.076050048828125	-0.01880509948730469	0.0010320399999618531	1.05656005859375	-0.05216659927368164	0.006636099815368652	1.0423800048828125	-0.07728569793701172	-0.010575799942016602	1.1176300048828125
3	0.1	-0.002541330099105835	-0.03330419921875	1.0580699462890626	-0.009772890090942383	-0.05471390151977539	1.07247998046875	-0.029325599670410155	-0.06786550140380859	1.094760009765625	-0.040538600921630856	-0.035899200439453126	1.105219970703125	-0.039358001708984375	-0.05657059860229492	1.07697998046875	-0.024796499252319335	-0.0587947998046875	1.06631005859375	-0.022246700286865234	-0.06358629989624023	1.0464000244140625	-0.06652870178222656	-0.06498359680175782	1.049050048828125	-0.026954299926757814	-0.04024700164794922	1.07827001953125	-0.024169900894165038	-0.03811069869995117	1.071760009765625	-0.01703089904785156	-0.039532398223876955	1.04475	-0.06438339996337891	-0.04121720123291016	1.03893994140625	-0.023064899444580077	-0.02552470016479492	1.072010009765625	-0.027597200393676757	-0.019347999572753908	1.080239990234375	-0.011822799682617187	-0.01732390022277832	1.056719970703125	-0.055780899047851565	-0.01620280075073242	1.038989990234375	-0.04115230178833008	-0.002972899913787842	1.08206005859375	-0.027045000076293946	-0.0023082599639892578	1.0776600341796876	-0.017183300018310546	0.0027126400470733644	1.0583599853515624	-0.05051679992675781	0.008184880256652831	1.0435999755859375	-0.07638749694824219	-0.009636099815368653	1.118219970703125
4	0.13333333333333333	-0.0017430200576782223	-0.03185420036315918	1.0596600341796876	-0.00888679027557373	-0.053733200073242185	1.0735899658203125	-0.02839360046386719	-0.06699220275878906	1.095510009765625	-0.03967300033569336	-0.03506069946289062	1.10602001953125	-0.03877320098876953	-0.05566799926757812	1.0777099609375	-0.023788299560546875	-0.05780379867553711	1.067469970703125	-0.02124600028991699	-0.06243429946899414	1.0473399658203124	-0.06549220275878906	-0.06387659835815429	1.049739990234375	-0.026056600570678712	-0.03952099990844726	1.0789000244140625	-0.02339609909057617	-0.037212699890136716	1.0728800048828124	-0.015909600257873534	-0.03841339874267578	1.0459000244140626	-0.06319800186157226	-0.0400463981628418	1.0396600341796876	-0.022179899215698243	-0.02466080093383789	1.0733800048828126	-0.026821800231933594	-0.018451900482177735	1.08168994140625	-0.010684900283813477	-0.01634149932861328	1.05818994140625	-0.05440039825439453	-0.01511709976196289	1.039989990234375	-0.04010300064086914	-0.001903980016708374	1.083739990234375	-0.026046300888061525	-0.0014986900091171261	1.079199951171875	-0.015916099548339845	0.003537859916687011	1.06025	-0.04884260177612305	0.0092081298828125	1.0449000244140625	-0.07572470092773438	-0.0087814302444458	1.11897998046875
